<svg width="379" height="370" viewBox="0 0 379 370" fill="none" xmlns="http://www.w3.org/2000/svg">
<path d="M167.281 73.6316C140.718 78.733 128.662 91.1776 106.1 106.095C73.9325 127.364 39.1623 133.454 31.9794 171.342C26.5942 199.748 35.3328 219.562 53.246 242.256C81.4012 277.926 120.704 264.447 164.888 275.068C211.204 286.201 253.902 333.572 284.817 297.332C316.661 260.002 211.843 223.99 236.28 181.441C250.437 156.793 284.331 167.271 297.507 142.085C324.14 91.1766 223.704 62.7951 167.281 73.6316Z" fill="#E58411" fill-opacity="0.6"/>
<path d="M158.572 88.8112C135.597 93.2103 125.173 103.965 105.664 116.854C77.8476 135.23 47.7733 140.48 41.5768 173.238C36.9312 197.797 44.4991 214.933 60.0045 234.564C84.3753 265.419 118.367 253.781 156.592 262.985C196.661 272.632 233.617 313.611 260.343 282.289C287.872 250.025 197.186 218.84 218.306 182.061C230.541 160.755 259.864 169.83 271.25 148.059C294.266 104.052 207.374 79.4665 158.572 88.8112Z" fill="#E58411"/>
</svg>
