<svg width="354" height="856" viewBox="0 0 354 856" fill="none" xmlns="http://www.w3.org/2000/svg">
<path d="M13.4465 196.858C-42.0448 185.694 -75.2568 200.247 -130.777 211.267C-209.934 226.978 -282.107 211.225 -326.038 278.922C-358.974 329.677 -357.745 374.978 -341.029 433.127C-314.754 524.524 -227.948 529.554 -150.781 585.133C-69.8902 643.393 -24.7178 768.975 63.8756 723.273C155.132 676.197 -19.3628 523.398 61.6811 460.345C108.629 423.819 165.978 470.968 211.453 432.624C303.373 355.117 131.321 220.571 13.4465 196.858Z" fill="#E58411" fill-opacity="0.6"/>
<path d="M-15.4485 219.36C-63.4345 209.679 -92.145 222.252 -140.146 231.76C-208.583 245.316 -270.995 231.657 -308.95 290.197C-337.406 334.087 -336.323 373.274 -321.843 423.582C-299.084 502.655 -224.024 507.044 -157.276 555.156C-87.3081 605.588 -48.1937 714.24 28.389 674.746C107.274 634.064 -43.6725 501.812 26.3748 447.305C66.9521 415.73 116.561 456.54 155.864 423.392C235.309 356.387 86.4829 239.925 -15.4485 219.36Z" fill="#E58411"/>
</svg>
