<svg width="354" height="791" viewBox="0 0 354 791" fill="none" xmlns="http://www.w3.org/2000/svg">
<path d="M432.447 162.531C376.955 151.367 343.743 165.92 288.223 176.94C209.066 192.651 136.893 176.898 92.9624 244.595C60.026 295.35 61.2545 340.651 77.9713 398.8C104.246 490.198 191.052 495.227 268.219 550.806C349.11 609.066 394.282 734.648 482.876 688.946C574.132 641.87 399.637 489.072 480.681 426.018C527.629 389.492 584.978 436.641 630.453 398.297C722.373 320.79 550.321 186.244 432.447 162.531Z" fill="#E58411" fill-opacity="0.6"/>
<path d="M403.551 185.033C355.565 175.352 326.854 187.925 278.853 197.433C210.416 210.989 148.004 197.33 110.049 255.87C81.5933 299.76 82.6756 338.947 97.1557 389.255C119.915 468.328 194.975 472.717 261.723 520.829C331.691 571.261 370.805 679.914 447.388 640.419C526.273 599.737 375.327 467.485 445.374 412.978C485.951 381.403 535.56 422.213 574.863 389.065C654.308 322.06 505.482 205.598 403.551 185.033Z" fill="#E58411"/>
</svg>
