<svg width="333" height="684" viewBox="0 0 333 684" fill="none" xmlns="http://www.w3.org/2000/svg">
<path d="M212.579 206.587C180.566 159.907 146.607 147.195 99.1128 116.402C31.3981 72.4989 -9.37834 10.901 -88.0635 28.8288C-147.056 42.2699 -177.749 75.6119 -206.289 128.962C-251.147 212.816 -192.404 276.924 -175.802 370.562C-158.4 468.719 -213.533 590.258 -118.149 619.231C-19.8983 649.075 -38.5353 417.885 63.5279 429.154C122.652 435.681 130.916 509.462 190.251 513.66C310.187 522.144 280.58 305.746 212.579 206.587Z" fill="#E58411" fill-opacity="0.6"/>
<path d="M186.175 224.585C158.511 184.198 129.159 173.205 88.1106 146.568C29.586 108.591 -5.65032 55.2975 -73.6683 70.8238C-124.664 82.4644 -151.2 111.32 -175.879 157.489C-214.669 230.055 -163.902 285.516 -149.568 366.538C-134.543 451.469 -182.22 556.646 -99.776 581.699C-14.8537 607.505 -30.9235 407.463 57.2974 417.195C108.402 422.833 115.534 486.674 166.821 490.296C270.492 497.617 244.937 310.375 186.175 224.585Z" fill="#E58411"/>
</svg>
