<svg width="447" height="684" viewBox="0 0 447 684" fill="none" xmlns="http://www.w3.org/2000/svg">
<path d="M326.592 206.583C294.579 159.902 260.62 147.191 213.126 116.398C145.411 72.4947 104.634 10.8968 25.9494 28.8247C-33.0436 42.2658 -63.7357 75.6077 -92.2761 128.958C-137.135 212.812 -78.3909 276.92 -61.7897 370.558C-44.3876 468.715 -99.5203 590.254 -4.13642 619.227C94.1145 649.071 75.4775 417.881 177.541 429.15C236.664 435.677 244.929 509.458 304.264 513.656C424.2 522.14 394.593 305.742 326.592 206.583Z" fill="#E58411" fill-opacity="0.6"/>
<path d="M300.188 224.581C272.524 184.194 243.172 173.2 202.124 146.564C143.599 108.586 108.363 55.2932 40.3449 70.8195C-10.6506 82.4602 -37.1864 111.316 -61.8657 157.485C-100.656 230.051 -49.8889 285.512 -35.5551 366.534C-20.5297 451.465 -68.207 556.641 14.2372 581.695C99.1595 607.501 83.0897 407.458 171.311 417.191C222.416 422.829 229.547 486.67 280.835 490.292C384.505 497.613 358.951 310.37 300.188 224.581Z" fill="#E58411"/>
</svg>
