<svg width="319" height="793" viewBox="0 0 319 793" fill="none" xmlns="http://www.w3.org/2000/svg">
<path d="M-303.021 439.68C-292.9 495.371 -267.11 520.86 -236.364 568.385C-192.527 636.142 -180.51 709.03 -101.375 724.851C-42.044 736.713 -0.399709 718.84 47.4643 681.828C122.695 623.655 95.308 541.129 118.456 448.89C142.721 352.201 242.74 263.84 167.548 198.391C90.0956 130.974 12.5488 349.565 -75.9794 297.54C-127.262 267.402 -104.629 196.694 -157.057 168.597C-263.033 111.802 -324.521 321.382 -303.021 439.68Z" fill="#E58411" fill-opacity="0.6"/>
<path d="M-271.438 458.222C-262.712 506.391 -240.423 528.427 -213.859 569.523C-175.985 628.114 -165.627 691.157 -97.2079 704.808C-45.9117 715.042 -9.89495 699.563 31.5084 667.525C96.5843 617.171 72.9407 545.797 92.9976 465.999C114.022 382.351 200.546 305.873 135.559 249.292C68.6182 191.01 1.4673 380.129 -75.0571 335.166C-119.387 309.12 -99.784 247.946 -145.105 223.665C-236.714 174.585 -289.975 355.902 -271.438 458.222Z" fill="#E58411"/>
</svg>
