<svg width="354" height="792" viewBox="0 0 354 792" fill="none" xmlns="http://www.w3.org/2000/svg">
<path d="M432.447 162.858C376.955 151.694 343.743 166.247 288.223 177.267C209.066 192.978 136.893 177.225 92.9624 244.922C60.026 295.677 61.2545 340.978 77.9713 399.127C104.246 490.524 191.052 495.554 268.219 551.133C349.11 609.393 394.282 734.975 482.876 689.273C574.132 642.197 399.637 489.398 480.681 426.345C527.629 389.819 584.978 436.968 630.453 398.624C722.373 321.117 550.321 186.571 432.447 162.858Z" fill="#E58411" fill-opacity="0.6"/>
<path d="M403.551 185.36C355.565 175.679 326.855 188.252 278.854 197.76C210.416 211.316 148.005 197.657 110.05 256.197C81.5938 300.087 82.6761 339.274 97.1562 389.582C119.915 468.655 194.975 473.044 261.723 521.156C331.691 571.588 370.806 680.241 447.389 640.746C526.273 600.064 375.327 467.812 445.374 413.305C485.952 381.73 535.56 422.54 574.863 389.392C654.309 322.387 505.482 205.925 403.551 185.36Z" fill="#E58411"/>
</svg>
