<svg width="35" height="34" viewBox="0 0 35 34" fill="none" xmlns="http://www.w3.org/2000/svg">
<g clip-path="url(#clip0_103_200)">
<path d="M7.00108 29.5735V27.8971C7.00108 27.2548 6.58859 26.8357 5.88527 26.8357C5.52894 26.8357 5.15388 26.9515 4.88178 27.3082C4.6752 27.0049 4.38505 26.8357 3.94447 26.8357C3.65365 26.8357 3.35414 26.9159 3.11948 27.2281V26.8891H2.50977V29.5735H3.12884V28.093C3.12884 27.6205 3.39158 27.3973 3.80408 27.3973C4.21657 27.3973 4.42316 27.6472 4.42316 28.093V29.5735H5.04223V28.093C5.04223 27.6205 5.33305 27.3973 5.71747 27.3973C6.12996 27.3973 6.33655 27.6472 6.33655 28.093V29.5735H7.00108ZM16.1422 26.8891H15.1387V26.0777H14.5196V26.8891H13.9573V27.424H14.5196V28.6546C14.5196 29.2702 14.7823 29.6359 15.485 29.6359C15.7477 29.6359 16.0472 29.5557 16.2445 29.4393L16.0666 28.9401C15.8888 29.0559 15.6822 29.0826 15.5418 29.0826C15.251 29.0826 15.1293 28.9134 15.1293 28.6368V27.4329H16.1328V26.8891H16.1422ZM21.3642 26.8357C21.0079 26.8357 20.7739 27.0049 20.6328 27.2281V26.8891H20.0137V29.5735H20.6328V28.0663C20.6328 27.6205 20.8394 27.3706 21.2231 27.3706C21.3448 27.3706 21.4859 27.3973 21.6076 27.424L21.7854 26.8624C21.6644 26.8357 21.4859 26.8357 21.3642 26.8357ZM13.4606 27.1124C13.1698 26.9159 12.7573 26.8357 12.3167 26.8357C11.6134 26.8357 11.1448 27.1747 11.1448 27.7006C11.1448 28.1464 11.5011 28.3964 12.1101 28.4854L12.401 28.5121C12.7199 28.5655 12.8977 28.6546 12.8977 28.7888C12.8977 28.9853 12.663 29.1277 12.2505 29.1277C11.838 29.1277 11.5191 28.9853 11.3132 28.8511L11.0224 29.2969C11.3413 29.5201 11.7819 29.6359 12.2225 29.6359C13.0474 29.6359 13.5161 29.2702 13.5161 28.7709C13.5161 28.2984 13.1317 28.0485 12.5507 27.9595L12.2599 27.9328C11.9972 27.906 11.7912 27.8526 11.7912 27.6828C11.7912 27.4863 11.9978 27.3795 12.3161 27.3795C12.6724 27.3795 13.0194 27.5219 13.1972 27.6027L13.4606 27.1124ZM29.8581 26.8357C29.5018 26.8357 29.2678 27.0049 29.1267 27.2281V26.8891H28.5077V29.5735H29.1267V28.0663C29.1267 27.6205 29.3333 27.3706 29.7171 27.3706C29.8387 27.3706 29.9798 27.3973 30.1015 27.424L30.2793 26.8624C30.149 26.8357 29.9705 26.8357 29.8581 26.8357ZM21.9826 28.2272C21.9826 29.0387 22.5729 29.6276 23.4828 29.6276C23.8953 29.6276 24.1862 29.5475 24.4863 29.3242L24.1955 28.8517C23.9609 29.0209 23.7269 29.1016 23.4641 29.1016C22.9674 29.1016 22.6111 28.7627 22.6111 28.2367C22.6111 27.7375 22.9674 27.3985 23.4641 27.3718C23.7269 27.3718 23.9609 27.452 24.1955 27.6218L24.4863 27.1493C24.1955 26.926 23.896 26.8459 23.4828 26.8459C22.5736 26.8357 21.9826 27.4246 21.9826 28.2272ZM27.6833 28.2272V26.8891H27.0643V27.2281C26.8577 26.9782 26.5675 26.8357 26.1831 26.8357C25.3862 26.8357 24.7765 27.4246 24.7765 28.2361C24.7765 29.0476 25.3956 29.6365 26.1831 29.6365C26.5956 29.6365 26.8864 29.494 27.0643 29.2441V29.5831H27.6833V28.2272ZM25.4236 28.2272C25.4236 27.7547 25.7425 27.3623 26.2767 27.3623C26.7734 27.3623 27.1298 27.728 27.1298 28.2272C27.1298 28.6997 26.7734 29.0921 26.2767 29.0921C25.7425 29.0654 25.4236 28.7086 25.4236 28.2272ZM18.0449 26.8357C17.2199 26.8357 16.6382 27.3973 16.6382 28.2361C16.6382 29.0743 17.2286 29.6365 18.0823 29.6365C18.4948 29.6365 18.9073 29.5207 19.2262 29.2708L18.9354 28.8517C18.7007 29.0209 18.4106 29.1284 18.1104 29.1284C17.726 29.1284 17.3509 28.9592 17.2573 28.486H19.3385V28.2628C19.3673 27.3884 18.8418 26.8357 18.0449 26.8357ZM18.0449 27.335C18.4293 27.335 18.692 27.5582 18.7482 27.9773H17.276C17.3422 27.6205 17.6043 27.335 18.0449 27.335ZM33.3553 28.2272V25.8284H32.7362V27.2287C32.5297 26.9788 32.2395 26.8364 31.8551 26.8364C31.0582 26.8364 30.4485 27.4253 30.4485 28.2367C30.4485 29.0482 31.0675 29.6371 31.8551 29.6371C32.2676 29.6371 32.5584 29.4947 32.7362 29.2447V29.5837H33.3553V28.2272ZM31.0863 28.2272C31.0863 27.7547 31.4052 27.3623 31.9393 27.3623C32.4361 27.3623 32.7924 27.728 32.7924 28.2272C32.7924 28.6997 32.4361 29.0921 31.9393 29.0921C31.4145 29.0654 31.0863 28.7086 31.0863 28.2272ZM10.4695 28.2272V26.8891H9.85044V27.2281C9.64386 26.9782 9.35371 26.8357 8.9693 26.8357C8.17238 26.8357 7.56267 27.4246 7.56267 28.2361C7.56267 29.0476 8.18174 29.6365 8.9693 29.6365C9.38179 29.6365 9.67261 29.494 9.85044 29.2441V29.5831H10.4695V28.2272ZM8.18241 28.2272C8.18241 27.7547 8.50131 27.3623 9.03548 27.3623C9.53221 27.3623 9.88855 27.728 9.88855 28.2272C9.88855 28.6997 9.53221 29.0921 9.03548 29.0921C8.50064 29.0654 8.18241 28.7086 8.18241 28.2272Z" fill="black"/>
<path d="M22.5171 6.51941H13.2637V22.3319H22.5171V6.51941Z" fill="#FF5F00"/>
<path d="M13.8445 14.4301C13.8445 11.2198 15.4289 8.3656 17.8665 6.51941C16.0754 5.18136 13.8164 4.36987 11.3414 4.36987C5.50029 4.36987 0.765625 8.86483 0.765625 14.4301C0.765625 19.9865 5.49094 24.4903 11.3414 24.4903C13.807 24.4903 16.0667 23.6788 17.8665 22.3408C15.4289 20.5213 13.8445 17.641 13.8445 14.4301Z" fill="#EB001B"/>
<path d="M34.9954 14.4301C34.9954 19.9865 30.2701 24.4903 24.4196 24.4903C21.954 24.4903 19.6943 23.6788 17.8945 22.3408C20.3601 20.4946 21.9165 17.65 21.9165 14.4301C21.9165 11.2198 20.3321 8.3656 17.8945 6.51941C19.6856 5.18136 21.9446 4.36987 24.4196 4.36987C30.2701 4.37051 34.9954 8.89217 34.9954 14.4301Z" fill="#F79E1B"/>
</g>
<defs>
<clipPath id="clip0_103_200">
<rect width="34.2298" height="32.5611" fill="white" transform="translate(0.769531 0.719482)"/>
</clipPath>
</defs>
</svg>
