<svg width="65" height="24" viewBox="0 0 65 24" fill="none" xmlns="http://www.w3.org/2000/svg">
<path d="M60.0937 6.07068H58.4482C58.4474 6.07068 58.4464 6.07095 58.4459 6.07095C58.0692 6.07095 57.686 6.32577 57.5793 6.65031C57.575 6.66344 57.5676 6.67602 57.5641 6.68969C57.5641 6.68969 57.5249 6.84799 57.4569 7.12168L55.1966 16.1799C55.1443 16.3846 55.1094 16.5181 55.0989 16.5528L55.1032 16.5577C55.025 16.8743 55.2402 17.1362 55.5937 17.1655L55.5983 17.1715H57.3063C57.6805 17.1715 58.0602 16.9189 58.1703 16.5984C58.1756 16.5829 58.1839 16.5684 58.1879 16.5528L60.6535 6.68914L60.6498 6.68805C60.7335 6.35065 60.4877 6.07068 60.0937 6.07068ZM51.6537 14.9732C51.4254 15.1003 51.1843 15.2091 50.9316 15.3018C50.5921 15.423 50.2702 15.4863 49.9724 15.4863C49.5153 15.4863 49.164 15.4292 48.9265 15.307C48.6887 15.1911 48.564 14.9895 48.5681 14.7012C48.5681 14.3681 48.655 14.1097 48.835 13.9071C49.0162 13.7122 49.2855 13.5553 49.6195 13.4383C49.9517 13.3387 50.3602 13.2567 50.8318 13.1979C51.2511 13.1511 52.0802 13.0667 52.1862 13.0661C52.2923 13.0653 52.3628 13.0137 52.3155 13.2636C52.2945 13.372 52.0551 14.241 51.9453 14.6361C51.9135 14.7544 51.7354 14.927 51.6537 14.9732ZM54.9076 8.86624C54.2093 8.52174 53.1171 8.34758 51.6225 8.34758C50.8834 8.34758 50.1406 8.40007 49.3953 8.50233C48.8483 8.57642 48.792 8.58873 48.4521 8.65408C47.7529 8.78859 47.645 9.4076 47.645 9.4076L47.4205 10.224C47.2931 10.7463 47.6295 10.7247 47.7795 10.6841C48.0848 10.6027 48.2502 10.5217 48.873 10.3971C49.4683 10.2776 50.0973 10.1882 50.5992 10.1918C51.3352 10.1918 51.8949 10.2631 52.267 10.4004C52.6393 10.5439 52.8236 10.7883 52.8236 11.138C52.8248 11.2212 52.8273 11.2996 52.7932 11.3682C52.7627 11.4322 52.7039 11.494 52.5279 11.515C51.4774 11.5703 50.7235 11.6551 49.8156 11.7721C48.9197 11.8837 48.1358 12.0747 47.4805 12.3394C46.7819 12.6134 46.2593 12.98 45.899 13.4445C45.5483 13.9113 45.3721 14.4764 45.3711 15.1422C45.3711 15.7713 45.6269 16.2845 46.1216 16.6828C46.6224 17.076 47.2736 17.2707 48.0616 17.2707C48.5538 17.2676 48.9392 17.2362 49.2153 17.1753C49.4888 17.1143 49.7868 17.0276 50.1016 16.9071C50.337 16.8201 50.5908 16.6943 50.859 16.5366C51.1274 16.3783 51.3132 16.2659 51.5516 16.1278L51.5603 16.141L51.4932 16.4026C51.4929 16.4051 51.4889 16.4064 51.4889 16.4089L51.4911 16.4138C51.4144 16.7291 51.6287 16.9912 51.9818 17.0222L51.9862 17.0276H52.0174L52.0187 17.029C52.253 17.029 53.0577 17.0287 53.4337 17.0276H53.6962C53.7135 17.0276 53.7154 17.0229 53.7222 17.0194C54.0828 16.9803 54.4285 16.7205 54.5099 16.4089L55.8529 11.2838C55.8838 11.1632 55.9083 11.024 55.9228 10.8638C55.9395 10.7019 55.9593 10.5687 55.9534 10.4726C55.9565 9.74718 55.604 9.21101 54.9076 8.86624ZM46.8202 7.69885C46.5911 7.30459 46.245 6.98715 45.8074 6.73999C45.3587 6.49338 44.8255 6.32139 44.2084 6.22105C43.5979 6.12645 42.8721 6.07232 42.0452 6.07068L38.1976 6.07232C37.8014 6.07833 37.4127 6.35339 37.3212 6.69214L34.7344 16.6449C34.64 16.9831 34.8973 17.265 35.2864 17.2631L37.1326 17.2601C37.5241 17.2631 37.923 16.9831 38.0154 16.6449L38.6395 14.2296C38.727 13.8911 39.125 13.6075 39.523 13.6125H40.0478C42.2996 13.6125 44.0457 13.2035 45.2959 12.3893C46.5431 11.5709 47.1709 10.4975 47.1709 9.16243C47.1668 8.57951 47.0546 8.08846 46.8202 7.69885ZM42.8507 10.9541C42.2996 11.3084 41.5263 11.4861 40.5311 11.4861H40.0734C39.6776 11.4903 39.4219 11.2072 39.5159 10.868L40.0675 8.75559C40.1499 8.42148 40.5516 8.13713 40.9418 8.13986L41.5464 8.13713C42.2521 8.13986 42.7799 8.24431 43.1445 8.45183C43.5029 8.66181 43.6768 8.98745 43.6795 9.42135C43.6811 10.0827 43.4043 10.5916 42.8507 10.9541Z" fill="#139AD6"/>
<path d="M33.7768 8.34387C33.4269 8.34387 32.968 8.59564 32.7507 8.89991C32.7507 8.89991 30.4102 12.4677 30.1803 12.8242C30.0554 13.0159 29.9288 12.8941 29.9077 12.8227C29.8907 12.736 29.1824 8.92336 29.1824 8.92336C29.1027 8.6164 28.7421 8.35291 28.2911 8.35413L26.8318 8.35608C26.4799 8.35608 26.2605 8.60663 26.3387 8.90944C26.3387 8.90944 27.4543 14.5319 27.6719 15.8542C27.7803 16.5856 27.6606 16.7153 27.6606 16.7153L26.2144 18.9575C26.0026 19.2616 26.1185 19.5107 26.4686 19.5107L28.1599 19.5094C28.5101 19.5094 28.9739 19.2616 29.1824 18.957L35.6884 9.17269C35.6884 9.17269 36.3108 8.33679 35.7369 8.34387C35.3455 8.34876 33.7768 8.34387 33.7768 8.34387ZM21.5618 14.9585C21.3338 15.0855 21.0933 15.1936 20.841 15.2864C20.5018 15.4068 20.1788 15.4706 19.8824 15.4706C19.4271 15.4706 19.0753 15.4133 18.8378 15.2919C18.6007 15.1758 18.4756 14.9747 18.4796 14.6864C18.4796 14.3547 18.5673 14.096 18.7467 13.894C18.9281 13.6991 19.1958 13.5422 19.5293 13.4256C19.8619 13.3257 20.2712 13.2448 20.7406 13.1862C21.1594 13.1395 21.9883 13.0554 22.0939 13.0541C22.199 13.0538 22.2696 13.0017 22.2224 13.2512C22.202 13.3595 21.9627 14.2275 21.8531 14.6217C21.82 14.7404 21.6422 14.9127 21.5618 14.9585ZM24.8114 8.86136C24.114 8.51743 23.0235 8.34383 21.5309 8.34383C20.7925 8.34383 20.051 8.39569 19.3064 8.49805C18.7591 8.57148 18.7042 8.58404 18.3644 8.64927C17.6658 8.78412 17.5583 9.40155 17.5583 9.40155L17.3342 10.2172C17.2072 10.7383 17.5435 10.7167 17.6926 10.6763C17.9968 10.595 18.163 10.5144 18.7851 10.3894C19.3786 10.2707 20.0077 10.1817 20.5083 10.1847C21.244 10.1847 21.8024 10.2557 22.174 10.3927C22.5461 10.536 22.7292 10.7805 22.7292 11.1294C22.7317 11.2124 22.7335 11.291 22.7005 11.3589C22.6693 11.4234 22.61 11.4848 22.4343 11.5055C21.3864 11.5615 20.6338 11.6459 19.7254 11.7627C18.8308 11.8741 18.0482 12.0648 17.3934 12.3288C16.6958 12.6023 16.1745 12.9689 15.8152 13.4324C15.4638 13.898 15.2881 14.4623 15.2874 15.1272C15.2874 15.7551 15.5432 16.2677 16.0367 16.6651C16.5371 17.0576 17.1868 17.2523 17.9738 17.2523C18.4657 17.2492 18.8502 17.2173 19.1269 17.1569C19.3997 17.0956 19.6977 17.0096 20.0109 16.8892C20.2468 16.8024 20.4997 16.6763 20.7678 16.519C21.0353 16.3613 21.2218 16.2491 21.4608 16.1112L21.4683 16.1241L21.4012 16.385C21.4006 16.3875 21.3969 16.3891 21.3969 16.3921L21.3997 16.3962C21.3231 16.7118 21.5365 16.9733 21.8895 17.0035L21.8938 17.0096H21.9247L21.9257 17.0115C22.1603 17.0115 22.9643 17.0104 23.3389 17.0096H23.6014C23.619 17.0096 23.6214 17.0044 23.627 17.0011C23.988 16.961 24.3321 16.7022 24.4142 16.3921L25.7556 11.2749C25.7858 11.1548 25.8105 11.0158 25.824 10.8562C25.842 10.6937 25.8614 10.5614 25.8562 10.4655C25.8592 9.74085 25.5066 9.20557 24.8114 8.86136ZM16.4216 7.69617C16.1928 7.30256 15.8471 6.98565 15.4102 6.73889C14.962 6.49268 14.4295 6.32098 13.8131 6.2208C13.2034 6.12636 12.4787 6.07231 11.6528 6.07068L7.81023 6.07231C7.41461 6.07832 7.0264 6.35292 6.93498 6.69112L4.35155 16.6275C4.25735 16.9651 4.51431 17.2466 4.90282 17.2447L6.74659 17.2417C7.13758 17.2447 7.53599 16.9651 7.62833 16.6275L8.25156 14.2162C8.33896 13.8783 8.73644 13.5952 9.13391 13.6H9.65801C11.907 13.6 13.6506 13.1918 14.8993 12.3788C16.1449 11.5619 16.7718 10.4902 16.7718 9.15734C16.7678 8.57538 16.6557 8.08514 16.4216 7.69617ZM12.4573 10.946C11.907 11.2998 11.1346 11.4772 10.1407 11.4772H9.68364C9.28833 11.4813 9.03292 11.1988 9.12681 10.8601L9.67778 8.75117C9.75993 8.41761 10.1611 8.13373 10.5509 8.13646L11.1546 8.13373C11.8594 8.13646 12.3866 8.24073 12.7507 8.44791C13.1086 8.65754 13.2822 8.98264 13.285 9.41583C13.2865 10.0762 13.0102 10.5841 12.4573 10.946Z" fill="#263B80"/>
</svg>
