<svg width="420" height="793" viewBox="0 0 420 793" fill="none" xmlns="http://www.w3.org/2000/svg">
<path d="M-201.394 439.552C-191.272 495.243 -165.482 520.732 -134.736 568.256C-90.8995 636.014 -78.8823 708.902 0.253282 724.723C59.5839 736.585 101.228 718.712 149.092 681.7C224.323 623.527 196.936 541.001 220.084 448.762C244.349 352.073 344.368 263.712 269.176 198.262C191.724 130.846 114.177 349.437 25.6486 297.412C-25.6344 267.274 -3.00071 196.566 -55.4292 168.468C-161.406 111.673 -222.893 321.254 -201.394 439.552Z" fill="#E58411" fill-opacity="0.6"/>
<path d="M-169.81 458.093C-161.084 506.262 -138.795 528.299 -112.231 569.394C-74.3573 627.986 -63.9991 691.029 4.42011 704.679C55.7164 714.913 91.7331 699.434 133.136 667.397C198.212 617.042 174.569 545.669 194.626 465.871C215.65 382.223 302.174 305.744 237.187 249.163C170.246 190.882 103.095 380.001 26.5709 335.038C-17.7586 308.992 1.84398 247.818 -43.4768 223.537C-135.086 174.456 -188.347 355.774 -169.81 458.093Z" fill="#E58411"/>
</svg>
