<svg width="438" height="446" viewBox="0 0 438 446" fill="none" xmlns="http://www.w3.org/2000/svg">
<path d="M260.747 102.919C231.923 97.1206 214.671 104.68 185.831 110.404C144.714 118.565 107.224 110.382 84.4048 145.547C67.2962 171.911 67.9344 195.442 76.6178 225.648C90.2659 273.123 135.357 275.736 175.441 304.606C217.459 334.868 240.923 400.101 286.942 376.362C334.345 351.908 243.705 272.538 285.802 239.786C310.189 220.812 339.978 245.304 363.6 225.386C411.347 185.126 321.976 115.237 260.747 102.919Z" fill="#E58411" fill-opacity="0.6"/>
<path d="M245.738 114.608C220.812 109.579 205.898 116.11 180.964 121.049C145.415 128.09 112.996 120.996 93.2808 151.404C78.4994 174.202 79.0616 194.557 86.5832 220.69C98.4053 261.763 137.394 264.043 172.066 289.034C208.411 315.231 228.728 371.67 268.509 351.155C309.485 330.023 231.077 261.326 267.462 233.012C288.54 216.611 314.309 237.809 334.724 220.591C375.992 185.786 298.685 125.29 245.738 114.608Z" fill="#E58411"/>
</svg>
