<svg width="30" height="30" viewBox="0 0 30 30" fill="none" xmlns="http://www.w3.org/2000/svg">
<path fill-rule="evenodd" clip-rule="evenodd" d="M6.14028 21.0311C4.69469 19.555 3.7142 17.687 3.32045 15.6588C2.92343 13.625 3.1273 11.5195 3.90715 9.59961C4.68033 7.69049 6.00036 6.05238 7.70147 4.89098C11.1529 2.53374 15.6966 2.53374 19.1479 4.89098C20.8491 6.05238 22.1691 7.69049 22.9422 9.59961C23.7221 11.5195 23.926 13.625 23.5289 15.6588C23.1353 17.687 22.1548 19.555 20.7091 21.0311C18.7947 22.9956 16.1679 24.1036 13.4246 24.1036C10.6815 24.1036 8.05474 22.9956 6.14028 21.0311Z" stroke="white" stroke-width="2.50726" stroke-linecap="round" stroke-linejoin="round"/>
<path d="M13.4361 6.80488C12.7476 6.87782 12.2486 7.49511 12.3215 8.18362C12.3946 8.87213 13.0119 9.37112 13.7003 9.29818L13.4361 6.80488ZM16.5307 10.9656C16.8007 11.6032 17.5363 11.9013 18.174 11.6313C18.8115 11.3614 19.1095 10.6257 18.8396 9.98816L16.5307 10.9656ZM21.7466 19.983C21.2567 19.4939 20.4629 19.4946 19.9738 19.9847C19.4846 20.4746 19.4854 21.2684 19.9754 21.7575L21.7466 19.983ZM25.6384 27.4105C26.1285 27.8998 26.9221 27.8991 27.4114 27.409C27.9005 26.9189 27.8998 26.1253 27.4097 25.636L25.6384 27.4105ZM13.7003 9.29818C14.908 9.17021 16.0573 9.84725 16.5307 10.9656L18.8396 9.98816C17.9358 7.85313 15.7418 6.56057 13.4361 6.80488L13.7003 9.29818ZM19.9754 21.7575L25.6384 27.4105L27.4097 25.636L21.7466 19.983L19.9754 21.7575Z" fill="#E58411"/>
</svg>
