<svg width="30" height="30" viewBox="0 0 30 30" fill="none" xmlns="http://www.w3.org/2000/svg">
<path fill-rule="evenodd" clip-rule="evenodd" d="M6.14028 21.0307C4.69469 19.5546 3.7142 17.6867 3.32045 15.6585C2.92343 13.6246 3.1273 11.5192 3.90715 9.59927C4.68033 7.69014 6.00036 6.05203 7.70147 4.89064C11.1529 2.53339 15.6966 2.53339 19.1479 4.89064C20.8491 6.05203 22.1691 7.69014 22.9422 9.59927C23.7221 11.5192 23.926 13.6246 23.5289 15.6585C23.1353 17.6867 22.1548 19.5546 20.7091 21.0307C18.7947 22.9952 16.1679 24.1033 13.4246 24.1033C10.6815 24.1033 8.05474 22.9952 6.14028 21.0307Z" stroke="black" stroke-width="2.50726" stroke-linecap="round" stroke-linejoin="round"/>
<path d="M13.4361 6.80489C12.7476 6.87784 12.2486 7.49512 12.3215 8.18363C12.3946 8.87214 13.0119 9.37114 13.7003 9.29819L13.4361 6.80489ZM16.5307 10.9656C16.8007 11.6033 17.5363 11.9013 18.174 11.6313C18.8115 11.3614 19.1095 10.6258 18.8396 9.98818L16.5307 10.9656ZM21.7466 19.983C21.2567 19.4939 20.4629 19.4946 19.9738 19.9847C19.4846 20.4746 19.4854 21.2684 19.9754 21.7575L21.7466 19.983ZM25.6384 27.4105C26.1285 27.8998 26.9221 27.8991 27.4114 27.409C27.9005 26.9189 27.8998 26.1253 27.4097 25.6361L25.6384 27.4105ZM13.7003 9.29819C14.908 9.17022 16.0573 9.84727 16.5307 10.9656L18.8396 9.98818C17.9358 7.85314 15.7418 6.56058 13.4361 6.80489L13.7003 9.29819ZM19.9754 21.7575L25.6384 27.4105L27.4097 25.6361L21.7466 19.983L19.9754 21.7575Z" fill="#E58411"/>
</svg>
