<svg width="45" height="28" viewBox="0 0 45 28" fill="none" xmlns="http://www.w3.org/2000/svg">
<path d="M16.7266 19.1436L18.6297 8.94498H21.6738L19.7693 19.1436H16.7266ZM30.7671 9.16483C30.1641 8.95821 29.2191 8.73648 28.0389 8.73648C25.0309 8.73648 22.9123 10.1197 22.8941 12.1022C22.8772 13.5677 24.4068 14.3852 25.5614 14.873C26.7464 15.373 27.1447 15.6918 27.139 16.1381C27.1314 16.8218 26.1928 17.134 25.3177 17.134C24.0994 17.134 23.4521 16.9794 22.4524 16.5988L22.06 16.4367L21.6329 18.7197C22.3439 19.0045 23.6586 19.251 25.0238 19.2639C28.2237 19.2639 30.301 17.8964 30.3246 15.7793C30.336 14.6191 29.525 13.7363 27.7687 13.0083C26.7048 12.5365 26.0532 12.2217 26.0601 11.744C26.0601 11.3201 26.6116 10.8668 27.8035 10.8668C28.7988 10.8526 29.52 11.0509 30.0818 11.2575L30.3546 11.3752L30.7671 9.16483ZM38.6006 8.94482H36.2484C35.5198 8.94482 34.9744 9.12643 34.6545 9.79057L30.1336 19.1369H33.3301C33.3301 19.1369 33.8526 17.8803 33.9708 17.6043C34.3202 17.6043 37.4255 17.6087 37.8694 17.6087C37.9604 17.9657 38.2397 19.1369 38.2397 19.1369H41.0644L38.6006 8.94451V8.94482ZM34.8686 15.5305C35.1204 14.9429 36.0814 12.6795 36.0814 12.6795C36.0635 12.7066 36.3314 12.089 36.485 11.7061L36.6907 12.5854C36.6907 12.5854 37.2736 15.0199 37.3955 15.5303H34.8686V15.5305ZM14.1425 8.94482L11.1622 15.8999L10.8448 14.4865C10.2899 12.8572 8.56135 11.092 6.62891 10.2082L9.35399 19.1274L12.5747 19.1241L17.3671 8.94471L14.1425 8.94466" fill="#0E4595"/>
<path d="M8.38111 8.94446H3.4725L3.43359 9.15665C7.25244 10.0008 9.77922 12.0409 10.8284 14.4925L9.76102 9.80579C9.57681 9.15999 9.04237 8.96722 8.38122 8.94472" fill="#F2AE14"/>
</svg>
